<svg xmlns="http://www.w3.org/2000/svg" width="369.94" height="381.729" viewBox="0 0 369.94 381.729"><g transform="translate(-64.354 -51.26)"><g transform="translate(-11.782 -16.689)"><g transform="translate(166 130)"><g transform="translate(0 0)"><path d="M199.835,36.566a10.984,10.984,0,0,0,6.094-1.7c5.54-3.965,7.2-11.328,3.878-16.426l-31.264-49.3a11.533,11.533,0,0,0-16.066-3.965c-4.986,3.965-6.648,11.328-3.324,16.426l30.71,49.3A11.062,11.062,0,0,0,199.835,36.566Z" transform="translate(-19.536 237.687)" fill="#7691df"/><path d="M126.267,189.4a11.253,11.253,0,0,0,11.559-11.489V-73.211A11.253,11.253,0,0,0,126.267-84.7a11.253,11.253,0,0,0-11.559,11.489V177.913A11.253,11.253,0,0,0,126.267,189.4Z" transform="translate(-114.708 84.7)" fill="#7691df"/><path d="M189.9,52.4a47.982,47.982,0,1,0,0-95.964,9.516,9.516,0,0,0-9.16,9.16,9.214,9.214,0,0,0,9.16,9.16A29.692,29.692,0,0,1,219.559,4.422,29.417,29.417,0,0,1,189.9,34.084H128.829a9.516,9.516,0,0,0-9.16,9.16,9.214,9.214,0,0,0,9.16,9.16Z" transform="translate(-117.473 221.848)" fill="#7691df"/><path d="M254.637,104.09a9.655,9.655,0,0,0,5.626-1.651c33.2-17.063,54.014-50.638,54.014-87.515,0-55.041-45.574-99.624-101.838-99.624H135.356a11.414,11.414,0,0,0-11.815,11.559,11.414,11.414,0,0,0,11.815,11.559h77.082c43.324,0,78.207,34.125,78.207,76.507a75.864,75.864,0,0,1-41.073,67.15c-6.189,3.3-8.44,9.907-5.064,15.962A11.892,11.892,0,0,0,254.637,104.09Z" transform="translate(-122.3 84.7)" fill="#7691df"/></g></g><g transform="translate(203.277 183.748)"><path d="M91.7,35.443A16.394,16.394,0,0,0,76.415,13.166a16.291,16.291,0,0,0-9.091,2.763A27.293,27.293,0,0,0,16.375,29.541c0,.461.017.921.034,1.382a24.569,24.569,0,0,0,8.153,47.743h62.77A21.832,21.832,0,0,0,91.7,35.443Z" transform="translate(0 -2.25)" fill="#d69292"/><path d="M33.416,16.568h-1.9V12.758a9.524,9.524,0,0,0-19.047,0v3.809h-1.9A3.82,3.82,0,0,0,6.75,20.377V39.424a3.82,3.82,0,0,0,3.809,3.809H33.416a3.82,3.82,0,0,0,3.809-3.809V20.377A3.82,3.82,0,0,0,33.416,16.568ZM21.988,33.9A3.809,3.809,0,1,1,25.8,30.091,3.82,3.82,0,0,1,21.988,33.9Zm5.9-17.333H16.083V12.758a5.9,5.9,0,0,1,11.81,0Z" transform="translate(30.904 16.769)" fill="#fff"/></g></g><g transform="translate(-114.141 -248.79)"><path d="M199.1,313.532l-2.9-.307c-.015-.038-.032-.077-.048-.115l1.833-2.266a.907.907,0,0,0-.064-1.213l-2.292-2.292a.906.906,0,0,0-1.213-.065l-2.266,1.833c-.038-.017-.076-.033-.115-.049l-.306-2.9a.909.909,0,0,0-.9-.813h-3.242a.908.908,0,0,0-.9.813l-.306,2.9c-.039.016-.077.032-.115.049l-2.266-1.833a.907.907,0,0,0-1.213.065l-2.293,2.292a.907.907,0,0,0-.064,1.213l1.833,2.266c-.017.038-.034.077-.049.115l-2.9.307a.907.907,0,0,0-.813.9v3.242a.907.907,0,0,0,.813.9l2.9.307c.015.038.032.077.049.115l-1.833,2.266a.907.907,0,0,0,.064,1.213l2.293,2.293a.908.908,0,0,0,1.213.063L186.257,323c.038.017.076.034.115.049l.306,2.9a.908.908,0,0,0,.9.812h3.242a.909.909,0,0,0,.9-.812l.306-2.9c.039-.015.077-.032.115-.049l2.266,1.833a.906.906,0,0,0,1.213-.063l2.292-2.293a.907.907,0,0,0,.064-1.213L196.15,319c.016-.038.033-.077.048-.115l2.9-.307a.907.907,0,0,0,.813-.9v-3.242A.907.907,0,0,0,199.1,313.532Zm-1,3.328-2.65.28a.909.909,0,0,0-.771.631,5.7,5.7,0,0,1-.392.936.91.91,0,0,0,.1.992l1.678,2.075-1.137,1.137-2.075-1.678a.9.9,0,0,0-.992-.1,5.789,5.789,0,0,1-.936.392.908.908,0,0,0-.631.77l-.281,2.649H188.4l-.281-2.649a.908.908,0,0,0-.631-.77,5.755,5.755,0,0,1-.936-.392.907.907,0,0,0-.992.1l-2.075,1.678-1.137-1.137,1.678-2.075a.91.91,0,0,0,.1-.992,5.628,5.628,0,0,1-.392-.936.911.911,0,0,0-.772-.631l-2.649-.28v-1.609l2.649-.28a.91.91,0,0,0,.772-.631,5.666,5.666,0,0,1,.392-.936.91.91,0,0,0-.1-.992l-1.678-2.075,1.137-1.137,2.075,1.678a.9.9,0,0,0,.992.1,5.739,5.739,0,0,1,.936-.391.908.908,0,0,0,.631-.771l.281-2.65h1.607l.281,2.65a.908.908,0,0,0,.631.771,5.773,5.773,0,0,1,.936.391.9.9,0,0,0,.992-.1l2.075-1.678,1.137,1.137-1.678,2.075a.91.91,0,0,0-.1.992,5.743,5.743,0,0,1,.392.936.909.909,0,0,0,.771.631l2.65.28Z" transform="translate(0 0)" fill="#c87f9a"/><path d="M189.938,313.35a3.441,3.441,0,1,0,3.441,3.441A3.445,3.445,0,0,0,189.938,313.35Zm0,5.067a1.625,1.625,0,1,1,1.625-1.625A1.627,1.627,0,0,1,189.938,318.417Z" transform="translate(-0.736 -0.736)" fill="#c87f9a"/></g><g transform="translate(-139.162 -242.044)"><path d="M540,378.784l-8.4-14.551a1.59,1.59,0,0,0-2.753,0l-8.4,14.551a1.59,1.59,0,0,0,1.377,2.384h16.8A1.59,1.59,0,0,0,540,378.784Zm-18.06.726,8.283-14.346,8.283,14.346Z" transform="translate(0)" fill="#c3cb5a"/><path d="M532.052,378.245a1.141,1.141,0,1,0,1.141,1.141A1.142,1.142,0,0,0,532.052,378.245Z" transform="translate(-1.828 -2.534)" fill="#c3cb5a"/><path d="M530.814,370.9a.829.829,0,0,0-.2.659l.561,4.048a.828.828,0,0,0,1.641,0l.561-4.048a.827.827,0,0,0-.821-.942h-1.122A.831.831,0,0,0,530.814,370.9Z" transform="translate(-1.777 -1.229)" fill="#c3cb5a"/></g><g transform="translate(-236.813 101.287)"><path d="M531.39,322.184v2.046a1.169,1.169,0,0,0,2.338,0v-2.046a1.883,1.883,0,1,0-2.338,0Z" transform="translate(1.315 2.124)" fill="#368b91"/><path d="M533.911,306.254a6.292,6.292,0,0,0-6.284,6.284V314.5h-1.421a3.318,3.318,0,0,0-3.314,3.314v10.579a3.318,3.318,0,0,0,3.314,3.314H541.54a3.317,3.317,0,0,0,3.314-3.314V317.81a3.317,3.317,0,0,0-3.314-3.314h-1.347v-1.958A6.291,6.291,0,0,0,533.911,306.254Zm-3.946,6.284a3.946,3.946,0,1,1,7.891,0v1.957h-7.891Zm12.551,5.272v10.579a.978.978,0,0,1-.976.976H526.206a.978.978,0,0,1-.976-.976V317.81a.978.978,0,0,1,.976-.976H541.54A.978.978,0,0,1,542.516,317.81Z" transform="translate(0 0)" fill="#368b91"/></g><g transform="translate(-64.327 -174.156)"><path d="M467.806,544.072l-.6,3.493a.612.612,0,0,0,.888.644l3.137-1.649,3.137,1.649a.612.612,0,0,0,.888-.644l-.6-3.493L477.2,541.6a.612.612,0,0,0-.34-1.044l-3.507-.51-1.569-3.178a.637.637,0,0,0-1.1,0l-1.568,3.178-3.508.51a.612.612,0,0,0-.339,1.044Zm1.8-2.863a.611.611,0,0,0,.461-.335l1.163-2.354,1.162,2.354a.613.613,0,0,0,.461.335l2.6.378-1.88,1.833a.612.612,0,0,0-.176.542l.444,2.589-2.324-1.222a.612.612,0,0,0-.57,0l-2.324,1.222.444-2.589a.614.614,0,0,0-.176-.542l-1.881-1.833Z" fill="#d296ac"/></g><g transform="translate(-366.83 -376.543)"><path d="M468.914,547.133l-.842,4.916a.861.861,0,0,0,1.249.907l4.414-2.32,4.414,2.32a.861.861,0,0,0,1.249-.907l-.843-4.916,3.572-3.481a.861.861,0,0,0-.478-1.469l-4.935-.717-2.208-4.471a.9.9,0,0,0-1.544,0l-2.207,4.471-4.935.717a.861.861,0,0,0-.477,1.469Zm2.537-4.028a.859.859,0,0,0,.648-.472l1.636-3.312,1.635,3.312a.862.862,0,0,0,.648.472l3.657.531-2.646,2.579a.862.862,0,0,0-.247.762l.624,3.642-3.27-1.72a.862.862,0,0,0-.8,0l-3.27,1.72.624-3.642a.864.864,0,0,0-.247-.762l-2.647-2.579Z" transform="translate(0)" fill="#368b91"/></g><g transform="translate(-389.83 -128.543)"><path d="M468.914,547.133l-.842,4.916a.861.861,0,0,0,1.249.907l4.414-2.32,4.414,2.32a.861.861,0,0,0,1.249-.907l-.843-4.916,3.572-3.481a.861.861,0,0,0-.478-1.469l-4.935-.717-2.208-4.471a.9.9,0,0,0-1.544,0l-2.207,4.471-4.935.717a.861.861,0,0,0-.477,1.469Zm2.537-4.028a.859.859,0,0,0,.648-.472l1.636-3.312,1.635,3.312a.862.862,0,0,0,.648.472l3.657.531-2.646,2.579a.862.862,0,0,0-.247.762l.624,3.642-3.27-1.72a.862.862,0,0,0-.8,0l-3.27,1.72.624-3.642a.864.864,0,0,0-.247-.762l-2.647-2.579Z" transform="translate(0)" fill="#98624a"/></g><g transform="translate(-47.567 -485.292)"><path d="M468.8,546.811l-.817,4.766a.834.834,0,0,0,1.211.879l4.279-2.25,4.279,2.25a.834.834,0,0,0,1.211-.879l-.817-4.766,3.463-3.375a.835.835,0,0,0-.463-1.424l-4.785-.7-2.141-4.335a.869.869,0,0,0-1.5,0l-2.14,4.335-4.785.7a.835.835,0,0,0-.462,1.424Zm2.459-3.905a.833.833,0,0,0,.629-.458l1.586-3.212,1.585,3.212a.836.836,0,0,0,.629.458l3.546.515-2.566,2.5a.836.836,0,0,0-.24.739l.605,3.531-3.171-1.667a.835.835,0,0,0-.778,0l-3.171,1.667.605-3.531a.838.838,0,0,0-.24-.739l-2.566-2.5Z" transform="translate(0)" fill="#4679b4"/></g><g transform="translate(-204.661 -475.475)"><path d="M467.953,544.48l-.631,3.683a.645.645,0,0,0,.936.679l3.307-1.739,3.307,1.739a.645.645,0,0,0,.936-.679l-.632-3.683,2.676-2.608a.645.645,0,0,0-.358-1.1l-3.7-.537-1.654-3.35a.671.671,0,0,0-1.157,0l-1.654,3.35-3.7.537a.645.645,0,0,0-.357,1.1Zm1.9-3.018a.644.644,0,0,0,.486-.354l1.226-2.482,1.225,2.482a.646.646,0,0,0,.486.354l2.74.4-1.983,1.932a.646.646,0,0,0-.185.571l.468,2.729-2.45-1.288a.646.646,0,0,0-.6,0l-2.45,1.288.468-2.729a.648.648,0,0,0-.185-.571l-1.983-1.932Z" transform="translate(0)" fill="#3f96ac"/></g><g transform="translate(-223.886 -135.249)"><path d="M304.9,369.415a.706.706,0,0,0,0,1,4.175,4.175,0,1,1-5.905,0,.7.7,0,1,0-1-1,5.585,5.585,0,1,0,7.9,0A.705.705,0,0,0,304.9,369.415Z" transform="translate(0 -1.17)" fill="#c67c9a"/><path d="M304.7,372.012v-6.058a.7.7,0,1,0-1.409,0v6.058a.7.7,0,1,0,1.409,0Z" transform="translate(-2.045)" fill="#c67c9a"/></g><g transform="translate(41.346 -375.413)"><path d="M359.88,606.621v1.085a.6.6,0,0,0,1.2,0v-1.085a.977.977,0,1,0-1.2,0Z" transform="translate(-2.921 -5.17)" fill="#98624a"/><path d="M354.283,595.255V596.3h-.38a1.7,1.7,0,0,0-1.7,1.7v5.635a1.7,1.7,0,0,0,1.7,1.7h7.312a1.7,1.7,0,0,0,1.7-1.7V598a1.7,1.7,0,0,0-1.7-1.7h-5.732v-1.049a2.1,2.1,0,0,1,4.028-.816.6.6,0,1,0,1.105-.467,3.3,3.3,0,0,0-6.333,1.283Zm6.932,2.249a.5.5,0,0,1,.5.5v5.635a.5.5,0,0,1-.5.5H353.9a.5.5,0,0,1-.5-.5V598a.5.5,0,0,1,.5-.5Z" transform="translate(0)" fill="#98624a"/></g><g transform="translate(-259.649 -220.887)"><path d="M363.7,541.466c.008-.109.012-.219.012-.329a4.477,4.477,0,0,0-4.472-4.471,4.428,4.428,0,0,0-2.293.638,3.483,3.483,0,0,0-.638-.06,3.984,3.984,0,0,0-4.042,3.81c0,.03,0,.061,0,.092a3.014,3.014,0,0,0,.563,5.974h1.983a.684.684,0,0,0,0-1.367h-1.983a1.647,1.647,0,1,1,.038-3.293l1-.056-.172-.784a2.788,2.788,0,0,1-.062-.565,2.6,2.6,0,0,1,2.675-2.443,2.457,2.457,0,0,1,.605.085l.3.075.255-.178a3.074,3.074,0,0,1,1.769-.56,3.1,3.1,0,0,1,3.042,3.721l-.123.606.591.183a1.64,1.64,0,0,1-.484,3.209H360.8a.684.684,0,0,0,0,1.367h1.475a3.007,3.007,0,0,0,1.434-5.654Z" fill="#4679b4"/><path d="M359.835,551.59a.683.683,0,0,0,.684-.684v-5.543l.944.964a.684.684,0,1,0,.977-.957l-2.116-2.161a.705.705,0,0,0-.978,0l-2.117,2.161a.684.684,0,0,0,.978.957l.944-.964v5.543A.683.683,0,0,0,359.835,551.59Z" transform="translate(-2.281 -2.007)" fill="#4679b4"/></g><g transform="translate(-52.679 -237.409)"><path d="M422.553,541.6c.009-.124.014-.249.014-.373a5.073,5.073,0,0,0-5.068-5.066,5.018,5.018,0,0,0-2.6.723,3.943,3.943,0,0,0-.723-.068,4.514,4.514,0,0,0-4.58,4.318c0,.034,0,.069,0,.1a3.415,3.415,0,0,0,.638,6.77h2.247a.775.775,0,1,0,0-1.549h-2.247a1.866,1.866,0,1,1,.043-3.732l1.132-.063-.2-.889a3.162,3.162,0,0,1-.07-.64,2.948,2.948,0,0,1,3.031-2.768,2.787,2.787,0,0,1,.686.1l.342.085.289-.2a3.483,3.483,0,0,1,2-.635,3.513,3.513,0,0,1,3.447,4.217l-.139.686.669.208a1.858,1.858,0,0,1-.549,3.636l-1.671,0a.775.775,0,0,0,0,1.549h0l1.67,0a3.419,3.419,0,0,0,3.415-3.415A3.385,3.385,0,0,0,422.553,541.6Z" fill="#498b28"/><path d="M417.208,545.5a.775.775,0,0,0-.775.775v6.282l-1.07-1.092a.775.775,0,0,0-1.108,1.083l2.4,2.45a.777.777,0,0,0,1.108,0l2.4-2.45a.774.774,0,1,0-1.107-1.083l-1.07,1.092v-6.282A.775.775,0,0,0,417.208,545.5Z" transform="translate(-1.625 -2.102)" fill="#498b28"/></g><path d="M6.625,8.691,1.634,13.682a.616.616,0,0,1-.872,0L.18,13.1a.616.616,0,0,1,0-.871L4.135,8.255.179,4.281a.616.616,0,0,1,0-.871l.582-.582a.616.616,0,0,1,.872,0L6.625,7.819A.616.616,0,0,1,6.625,8.691Zm9.811,4.7V12.57a.616.616,0,0,0-.616-.616H8.013a.616.616,0,0,0-.616.616v.822a.616.616,0,0,0,.616.616H15.82A.616.616,0,0,0,16.436,13.391Z" transform="translate(324.282 91.223)" fill="#c87f9a"/><g transform="translate(-214.491 -569.14)"><path d="M361.275,653.8a.526.526,0,1,0,0-1.053h-2.106v-2.106a.526.526,0,0,0-1.053,0v2.106h-3.159v-2.106a.526.526,0,0,0-1.053,0v2.106H351.8a.526.526,0,1,0,0,1.053H353.9v3.159H351.8a.526.526,0,0,0,0,1.053H353.9v2.106a.526.526,0,0,0,1.053,0v-2.106h3.159v2.106a.526.526,0,0,0,1.053,0v-2.106h2.106a.526.526,0,0,0,0-1.053h-2.106V653.8Zm-3.159,3.159h-3.159V653.8h3.159Z" transform="translate(0 0)" fill="#62ac7b"/></g><path d="M15.029,14.123a1.2,1.2,0,0,1-1.2,1.2H4.2a1.2,1.2,0,0,1-1.2-1.2V5.7A1.2,1.2,0,0,1,4.2,4.5H7.21l1.2,1.8h5.413a1.2,1.2,0,0,1,1.2,1.2Z" transform="translate(174.986 409.587)" fill="none" stroke="#74bb80" stroke-linecap="round" stroke-linejoin="round" stroke-width="2"/></g></svg>