<svg xmlns="http://www.w3.org/2000/svg" width="216.05" height="308.643" viewBox="0 0 216.05 308.643"><g transform="translate(-166 -130)"><g transform="translate(166 130)"><g transform="translate(0 0)"><path d="M205.153,45.736a12.362,12.362,0,0,0,6.858-1.912c6.235-4.462,8.105-12.749,4.364-18.486L181.192-30.144a12.98,12.98,0,0,0-18.081-4.462c-5.611,4.462-7.482,12.749-3.741,18.486l34.561,55.483A12.449,12.449,0,0,0,205.153,45.736Z" transform="translate(-2.246 262.906)" fill="#7691df"/><path d="M127.716,223.774a12.664,12.664,0,0,0,13.008-12.93V-71.77A12.664,12.664,0,0,0,127.716-84.7a12.664,12.664,0,0,0-13.008,12.93V210.843A12.664,12.664,0,0,0,127.716,223.774Z" transform="translate(-114.708 84.7)" fill="#7691df"/><path d="M198.7,64.438a54,54,0,1,0,0-108,10.709,10.709,0,0,0-10.309,10.309A10.369,10.369,0,0,0,198.7-22.942a33.415,33.415,0,0,1,33.381,33.381A33.106,33.106,0,0,1,198.7,43.82H129.978a10.709,10.709,0,0,0-10.309,10.309,10.369,10.369,0,0,0,10.309,10.309Z" transform="translate(-117.198 244.205)" fill="#7691df"/><path d="M271.076,127.763a10.866,10.866,0,0,0,6.332-1.858c37.359-19.2,60.787-56.987,60.787-98.489,0-61.943-51.289-112.116-114.609-112.116H136.838c-7.6,0-13.3,5.575-13.3,13.008s5.7,13.008,13.3,13.008h86.748c48.756,0,88.014,38.4,88.014,86.1a85.377,85.377,0,0,1-46.223,75.57c-6.965,3.717-9.5,11.15-5.7,17.963A13.384,13.384,0,0,0,271.076,127.763Z" transform="translate(-122.145 84.7)" fill="#7691df"/></g></g><g transform="translate(207.952 190.488)"><path d="M103.2,39.605A18.45,18.45,0,0,0,86,14.535a18.334,18.334,0,0,0-10.231,3.11A30.716,30.716,0,0,0,18.428,32.963c0,.518.019,1.037.038,1.555a27.649,27.649,0,0,0,9.176,53.729H98.283A24.569,24.569,0,0,0,103.2,39.605Z" transform="translate(0 -2.25)" fill="#d69292"/><path d="M36.76,18.239H34.617V13.952a10.718,10.718,0,0,0-21.436,0v4.287H11.037A4.3,4.3,0,0,0,6.75,22.527V43.962a4.3,4.3,0,0,0,4.287,4.287H36.76a4.3,4.3,0,0,0,4.287-4.287V22.527A4.3,4.3,0,0,0,36.76,18.239ZM23.9,37.746a4.287,4.287,0,1,1,4.287-4.287A4.3,4.3,0,0,1,23.9,37.746Zm6.645-19.507H17.253V13.952a6.645,6.645,0,0,1,13.291,0Z" transform="translate(35.625 19.277)" fill="#fff"/></g></g></svg>